<?xml version="1.0" standalone="no"?>
<!DOCTYPE svg PUBLIC "-//W3C//DTD SVG 20010904//EN"
 "http://www.w3.org/TR/2001/REC-SVG-20010904/DTD/svg10.dtd">
<svg version="1.0" xmlns="http://www.w3.org/2000/svg"
 width="209.000000pt" height="209.000000pt" viewBox="0 0 209.000000 209.000000"
 preserveAspectRatio="xMidYMid meet">
<metadata>
Created by potrace 1.11, written by Peter Selinger 2001-2013
</metadata>
<g transform="translate(0.000000,209.000000) scale(0.100000,-0.100000)"
fill="#000000" stroke="none">
<path d="M863 2066 c-18 -22 -19 -47 -16 -453 l2 -429 -341 -199 c-187 -110
-358 -210 -380 -222 -22 -12 -48 -29 -59 -39 -19 -17 -25 -59 -11 -80 12 -19
1102 -637 1127 -639 13 -2 33 6 45 17 21 20 21 22 18 451 l-3 431 31 21 c17
11 194 115 392 230 378 220 399 235 373 283 -8 16 -282 179 -551 330 -25 14
-139 79 -255 145 -353 202 -338 196 -372 153z m203 -99 c60 -35 134 -77 164
-94 30 -17 116 -65 190 -108 164 -94 164 -94 374 -213 107 -62 172 -105 179
-119 13 -28 -3 -63 -36 -79 -12 -6 -155 -89 -317 -184 -162 -95 -313 -183
-335 -196 l-40 -23 0 177 c1 178 -8 230 -38 234 -6 0 -19 2 -27 3 -16 2 -43
-12 -206 -108 -33 -20 -66 -37 -74 -39 -11 -2 -14 63 -16 382 -3 417 -1 430
50 430 13 0 72 -28 132 -63z"/>
</g>
</svg>
