<svg width="46" height="48" viewBox="0 0 46 48" fill="none" xmlns="http://www.w3.org/2000/svg">
<path d="M27.2362 17.8692C27.2349 17.6172 27.1672 17.37 27.0401 17.1525C26.9129 16.9349 26.7307 16.7547 26.5118 16.6299C26.2929 16.5051 26.045 16.4401 25.7931 16.4414C25.5411 16.4428 25.2939 16.5105 25.0764 16.6376L0.710161 30.885C0.49275 31.0124 0.312678 31.1947 0.188029 31.4137C0.0633804 31.6327 -0.00145823 31.8806 2.48836e-05 32.1326C0.001508 32.3845 0.0692606 32.6317 0.196479 32.8492C0.323697 33.0667 0.505902 33.2469 0.724797 33.3717L25.2453 47.3493C25.4642 47.4743 25.7121 47.5394 25.9642 47.5381C26.2162 47.5368 26.4635 47.4691 26.681 47.3419C26.8986 47.2147 27.0788 47.0324 27.2036 46.8134C27.3283 46.5944 27.3932 46.3464 27.3916 46.0943L27.2362 17.8692Z" fill="url(#paint0_linear)"/>
<path d="M18.1552 1.44386L18.3104 29.669C18.3119 29.921 18.3796 30.1682 18.5069 30.3857C18.6341 30.6032 18.8163 30.7835 19.0353 30.9083C19.2542 31.0331 19.5021 31.0981 19.7541 31.0967C20.0062 31.0953 20.2534 31.0277 20.471 30.9005L44.8363 16.6531C45.0538 16.5259 45.234 16.3436 45.3588 16.1247C45.4836 15.9057 45.5485 15.6578 45.5471 15.4058C45.5457 15.1538 45.478 14.9066 45.3508 14.689C45.2236 14.4715 45.0414 14.2912 44.8225 14.1664L20.302 0.18872C20.083 0.0637815 19.8351 -0.00130105 19.583 1.9709e-05C19.331 0.00134047 19.0837 0.069018 18.8661 0.196244C18.6485 0.323471 18.4682 0.505759 18.3434 0.724771C18.2187 0.943784 18.1537 1.1918 18.1552 1.44386ZM20.9594 1.52869L43.3345 14.2834C43.5343 14.3974 43.7005 14.5619 43.8165 14.7605C43.9326 14.959 43.9943 15.1846 43.9955 15.4146C43.9968 15.6445 43.9375 15.8708 43.8236 16.0705C43.7098 16.2703 43.5453 16.4367 43.3468 16.5528L21.1138 29.5527C20.9153 29.6688 20.6898 29.7306 20.4598 29.7318C20.2298 29.7331 20.0036 29.6738 19.8038 29.5599C19.6041 29.446 19.4378 29.2816 19.3217 29.0831C19.2056 28.8846 19.1439 28.659 19.1426 28.429L19.0005 2.67436C18.9993 2.4444 19.0586 2.21817 19.1725 2.01839C19.2864 1.81862 19.4508 1.65233 19.6493 1.53623C19.8479 1.42014 20.0734 1.35833 20.3034 1.357C20.5333 1.35568 20.7596 1.41489 20.9594 1.52869Z" fill="url(#paint1_linear)"/>
<path d="M21.1325 29.5485C20.9338 29.6647 20.7081 29.7265 20.478 29.7277C20.2478 29.729 20.0215 29.6697 19.8215 29.5557C19.6216 29.4417 19.4552 29.2772 19.339 29.0785C19.2229 28.8799 19.161 28.6542 19.1598 28.424L19.1191 21.092L18.2817 21.5812L18.3268 29.6648C18.3282 29.917 18.396 30.1643 18.5233 30.382C18.6506 30.5997 18.8329 30.78 19.0519 30.905C19.271 31.0299 19.519 31.095 19.7712 31.0937C20.0234 31.0924 20.2707 31.0248 20.4885 30.8976L26.472 27.3988L26.4676 26.4291L21.1325 29.5485Z" fill="white"/>
<path d="M19.119 21.0918L19.1129 20.123L18.2775 20.612L18.2813 21.5815L19.119 21.0918Z" fill="white"/>
<path d="M26.4675 26.4291L26.472 27.3986L27.309 26.909L27.3037 25.9402L26.4675 26.4291Z" fill="white"/>
<defs>
<linearGradient id="paint0_linear" x1="12.1224" y1="41.3605" x2="28.4797" y2="18.0002" gradientUnits="userSpaceOnUse">
<stop stop-color="#DED127"/>
<stop offset="0.42784" stop-color="#F1E329"/>
</linearGradient>
<linearGradient id="paint1_linear" x1="13.5545" y1="5.99224" x2="36.1834" y2="26.3671" gradientUnits="userSpaceOnUse">
<stop stop-color="#BABABE"/>
<stop offset="0.09794" stop-color="#D9D9D9"/>
<stop offset="0.17784" stop-color="#AAAAAC"/>
<stop offset="0.47938" stop-color="#858585"/>
<stop offset="0.67268" stop-color="#B2B3B5"/>
<stop offset="0.75" stop-color="#E6E6E6"/>
<stop offset="0.87371" stop-color="#AEAFB1"/>
<stop offset="1" stop-color="#4D4D4D"/>
</linearGradient>
</defs>
</svg>
